<?xml version="1.0" encoding="utf-8"?>
<!-- Generator: Adobe Illustrator 19.0.0, SVG Export Plug-In . SVG Version: 6.00 Build 0)  -->
<svg version="1.1" id="Layer_1" xmlns="http://www.w3.org/2000/svg" xmlns:xlink="http://www.w3.org/1999/xlink" x="0px" y="0px"
	 viewBox="0 0 50 50" style="enable-background:new 0 0 50 50;" xml:space="preserve">
<style type="text/css">
	.st0{fill:#E6DFC8;}
</style>
<path id="XMLID_5_" class="st0" d="M48.506,22.976L27.23,1.699c-0.593-0.593-1.371-0.89-2.149-0.89s-1.556,0.297-2.149,0.89
	l-4.122,4.122c-0.432-1.153-1.544-1.973-2.847-1.973H9.883c-1.679,0-3.04,1.361-3.04,3.04v10.899l-5.189,5.189
	c-0.87,0.869-1.129,2.177-0.659,3.312c0.47,1.136,1.579,1.876,2.808,1.876h3.039v18.237c0,1.679,1.361,3.04,3.04,3.04h30.395
	c1.679,0,3.04-1.361,3.04-3.04V28.165h3.039c1.229,0,2.338-0.741,2.808-1.876C49.636,25.152,49.376,23.845,48.506,22.976z
	 M31.159,46.402H19.001V26.645h12.158V46.402z M40.278,25.125v21.277h-7.599V26.645c0-0.839-0.68-1.52-1.52-1.52H19.001
	c-0.839,0-1.52,0.68-1.52,1.52v19.757H9.883V25.125H3.804l6.079-6.079V6.888h6.079v6.079l9.119-9.119l21.277,21.277H40.278z"/>
</svg>
